<svg xmlns="http://www.w3.org/2000/svg" viewBox="0 0 143.35 148.88"><defs><style>.cls-1{fill:#4d4d4d;}</style></defs><title>Arrow</title><g id="Layer_2" data-name="Layer 2"><g id="Layer_1-2" data-name="Layer 1"><path class="cls-1" d="M24.63,148.32l-.6.36.53.2C24.76,148.82,24.94,148.47,24.63,148.32Z"/><path class="cls-1" d="M24.42,147.9c0-.67-.38-1-1.09-1.09,0-.19.21-.24.32-.31a1.36,1.36,0,0,0-1.43.72c.71-.21.6.05,1.41-.25a.42.42,0,0,1,.09.69C23.92,147.6,24,148.1,24.42,147.9Z"/><path class="cls-1" d="M3.23,101.67c0,.15.08.21.14.22C3.33,101.75,3.29,101.64,3.23,101.67Z"/><path class="cls-1" d="M4.17,98.5a1.27,1.27,0,0,0-.06.18C4.17,98.62,4.21,98.55,4.17,98.5Z"/><path class="cls-1" d="M6.3,120.49c0-.19,0-.37,0-.56C6.09,120,6.25,120.24,6.3,120.49Z"/><path class="cls-1" d="M19.34,144.6a.62.62,0,0,0,.33.08,1.38,1.38,0,0,1-.24-.14Z"/><path class="cls-1" d="M10.48,127.89l.08.13a1.06,1.06,0,0,0,.3,0Z"/><path class="cls-1" d="M14.09,133.3c-.07-.14-.56.15-.79.24a.58.58,0,0,1,.5,0A1.47,1.47,0,0,0,14.09,133.3Z"/><path class="cls-1" d="M125.21,12.13s0,.07,0,.1S125.26,12.13,125.21,12.13Z"/><path class="cls-1" d="M133.3,13.69l-.11.05c0,.11,0,.21,0,.31Z"/><path class="cls-1" d="M5.81,92.79l0,0C5.83,93,5.83,92.89,5.81,92.79Z"/><path class="cls-1" d="M37.09,49.85c-.8-.05.48-1.11-.62-1C36.66,49,36.27,50,37.09,49.85Z"/><path class="cls-1" d="M19.27,144.42a1.8,1.8,0,0,1-.2-.19A.67.67,0,0,0,19.27,144.42Z"/><path class="cls-1" d="M9.88,79.92a.86.86,0,0,0-.28,0A.4.4,0,0,0,9.88,79.92Z"/><path class="cls-1" d="M11.69,74.88c.11-.09.2-.09.23-.29h-.08C11.87,74.7,11.85,74.8,11.69,74.88Z"/><path class="cls-1" d="M14.73,70.23l-.15,0-.09.16Z"/><path class="cls-1" d="M108.54,16.31c-.18-.36.61-.7-.38-.43A1.89,1.89,0,0,1,108.54,16.31Z"/><path class="cls-1" d="M19.56,144.37a.27.27,0,0,1-.29,0l.16.12C19.5,144.49,19.56,144.44,19.56,144.37Z"/><path class="cls-1" d="M8,72.41l.56-.76A3.94,3.94,0,0,0,8,72.41Z"/><path class="cls-1" d="M10,69.26a1.51,1.51,0,0,0,.62-.22.64.64,0,0,0-.06-.18Z"/><path class="cls-1" d="M66.05,29a1.63,1.63,0,0,0,.14-.18Z"/><path class="cls-1" d="M22.28,145.79l0,.11A.1.1,0,0,0,22.28,145.79Z"/><path class="cls-1" d="M98,22.63a.71.71,0,0,1,.09-.07l-.18-.08c0,.07,0,.14,0,.2Z"/><path class="cls-1" d="M6.31,120.7a.19.19,0,0,1,0,.1l0-.06Z"/><polygon class="cls-1" points="70.52 27.15 70.57 27.28 70.67 27.11 70.52 27.15"/><path class="cls-1" d="M8.73,130a.3.3,0,0,0-.06.18A.28.28,0,0,0,8.73,130Z"/><path class="cls-1" d="M10.82,133.48l.16.59A2.48,2.48,0,0,0,10.82,133.48Z"/><path class="cls-1" d="M12.42,136.21l.23-.09h0Z"/><path class="cls-1" d="M1.84,88.35a.49.49,0,0,0,0-.12C1.83,87.92,1.82,88.12,1.84,88.35Z"/><path class="cls-1" d="M1.07,103.4a3.77,3.77,0,0,1-.26-.48C.77,103.19.75,103.39,1.07,103.4Z"/><path class="cls-1" d="M7.94,72.49H8L8,72.41Z"/><path class="cls-1" d="M.83,102.22a1,1,0,0,0,0,.7A1.19,1.19,0,0,0,.83,102.22Z"/><path class="cls-1" d="M21.42,146.73a.18.18,0,0,1,.08,0l-.17-.07Z"/><path class="cls-1" d="M21.67,146.74c-.06-.05-.11-.09-.17-.06Z"/><path class="cls-1" d="M22,146.88l-.35-.14C21.76,146.83,21.86,147,22,146.88Z"/><path class="cls-1" d="M17.63,142.58c.17.26.19.86.58,1.08l.15-.08C18,143.64,18.08,142.56,17.63,142.58Z"/><path class="cls-1" d="M16.13,137l.53.9c.05-.28.13-.65.46-.32C16.81,136.16,16.91,138.09,16.13,137Z"/><path class="cls-1" d="M14.81,134c-.37-.17-.46-.21-.37.24C14.85,134.65,14.69,134.07,14.81,134Z"/><path class="cls-1" d="M4.53,113.8l.51-.07C4.87,113.35,4.85,113.78,4.53,113.8Z"/><polygon class="cls-1" points="1.08 109.93 0.83 110.4 1.33 110.53 1.08 109.93"/><polygon class="cls-1" points="4.39 106.9 4.48 107.07 4.22 106.4 4.39 106.9"/><path class="cls-1" d="M14.57,71.32,14,71.07C13.91,71.37,14.46,71.82,14.57,71.32Z"/><path class="cls-1" d="M25,58.46c.34.11.83-.06.83-.48C25.51,58.2,25.07,58.27,25,58.46Z"/><polygon class="cls-1" points="67.98 33.83 68.5 33.42 68.21 33.5 67.98 33.83"/><path class="cls-1" d="M121.87.83,122,.18l-.15.16C121.81.5,121.78.89,121.87.83Z"/><path class="cls-1" d="M122.31,1.18a2,2,0,0,1-.06.44,4.13,4.13,0,0,0,.32-1.47c-.17.62-.16.36-.35,1.1-.09.06-.11-.23-.07-.47-.05.16-.11-.16-.2.25S122.12,1.59,122.31,1.18Z"/><path class="cls-1" d="M133.6,6.12s.09,0,.1-.11S133.62,6.06,133.6,6.12Z"/><path class="cls-1" d="M134.08,7s0,0,0-.06S134.05,7,134.08,7Z"/><path class="cls-1" d="M129.51,4.1l.06.24C129.64,4.13,129.55,4.17,129.51,4.1Z"/><path class="cls-1" d="M123.52.17a.57.57,0,0,0-.09.16l.07-.06Z"/><path class="cls-1" d="M127.4,4.11h0c0,.07-.06.16-.09.25Z"/><path class="cls-1" d="M126.07,3.12a1.09,1.09,0,0,1-.15.36q0,.15-.06.39A4.61,4.61,0,0,0,126.07,3.12Z"/><path class="cls-1" d="M117.19,30c0,.06,0,.09,0,.09Z"/><polygon class="cls-1" points="114.3 28.43 114.31 28.39 114.17 28.1 114.3 28.43"/><path class="cls-1" d="M134.91,8.25h0C134.85,8.28,134.87,8.28,134.91,8.25Z"/><path class="cls-1" d="M134.75,14c.42.31.2.66.71,1C135.31,14.79,135.09,14.13,134.75,14Z"/><path class="cls-1" d="M137.48,9.41a1.38,1.38,0,0,0-.15.19Z"/><path class="cls-1" d="M138.53,9.8s-.09.09,0,.07l0,0C138.5,9.86,138.47,9.87,138.53,9.8Z"/><path class="cls-1" d="M138.82,10.43l.11,0,0,0Z"/><path class="cls-1" d="M120.85,27.84a4.43,4.43,0,0,1-.29-.42C120.76,27.77,120.65,28,120.85,27.84Z"/><path class="cls-1" d="M123.56.25l-.06,0a2.06,2.06,0,0,0,0,.21A.5.5,0,0,1,123.56.25Z"/><path class="cls-1" d="M142.29,7.45l.14.4A.92.92,0,0,0,142.29,7.45Z"/><path class="cls-1" d="M129.52,22.87V23S129.54,22.93,129.52,22.87Z"/><path class="cls-1" d="M143,8.91a1,1,0,0,0-.31.32h.15C142.9,9.13,143,9,143,8.91Z"/><path class="cls-1" d="M143.16,10.67c.08,0,.16.07.19.11-.21-.15,0-.71-.52-.52.22-.43-.36-.67-.13-1-.63,0,0-.72-.79-.47.87-.3.35-.93-.14-.89.28-.07.13-.33.5-.46-.16-.21-.42-.28-.77,0,.31-.49,0-.55-.25-.56s-.45,0,0-.58a19.32,19.32,0,0,1-1.92-.39c.59-.69.48.3,1.09-.43-.64-.07-1.32.39-1.55-.06,0-.17.28-.28.41-.38-.6,0-.71-.6-1.32-.4a.56.56,0,0,1,.21-.16c-.09,0-.09-.21-.3.14l.12,0c-.21.57-.92.89-1.09,1.15.73-.94-.17-.44.77-1.61a.94.94,0,0,0-.37.41c0-.1,0-.25.26-.48-.36,0-.49.48-.7.34a4.65,4.65,0,0,1,.32-.4c-.31.27-.6.55-.71.3.07-.09.12-.24.18-.21-.36-.12-1,.62-1.19.13.48-.73,0-.32.31-1l-.29.11-.08.36c-.16-.09-.53.34-.57.05l.25-.22h-.37l.06.33c-.33.28-.38.87-.51.59.08,0-.15-.08-.06-.52h0c-.18.19-.36.38-.41.16s.35-.75.39-.9c-.32.54-.46,0-.81.57a3,3,0,0,0,.26-.57l-.26.44a.88.88,0,0,1,.13-.55c-.2-.18-.27.91-.4.43,0,0,0-.11.13-.16-.21-.31-.65.1-.82-.23.18-.74.29-.09.42-.72-.43,0-1.08.58-1.38.29l0,.1c-.38,1-.11-.59-.45-.17a1.61,1.61,0,0,0,.19-.43c-.2-.24-.59.08-1.06.29l.12-.25c-.07-.27-.35-.24-.47-.41-.12.25-.2.18-.25.58-.09-1.63-1.14.55-1.26-.8.05,0,.18-.21.14-.22l-.44.16a2.09,2.09,0,0,0,0,.65c-.11.26-.26.44-.35.42a1.4,1.4,0,0,0,.15-1c0,.14-.08.28-.11.42,0-.84-.24.9-.38.3l.07-.23c-.13.1-.29.39-.38.3.07-.53.16-.22.26-.65-.16,0-.51.93-.53.38.09-.13.19-.12.28-.25,0-.64-.07-.49-.16-.61h0l-.2-.33,0,.18c-.47,1.33-.44.17-.87,1,.41-.8.14-.48.27-1.07a1,1,0,0,1,0-.55c-.21.46-.14-.41-.44.26,0-.2-.13-.05,0-.52-.19.12,0,.34-.08.57-.36.61-.45-.89-.95-.05-.37.32-.52,1-.84,1.25a1.21,1.21,0,0,1,.18-.69c-.11-.31-.24-.27-.41-.07a1.3,1.3,0,0,0,0-.53c-.12,0-.17.69-.28.38a5.44,5.44,0,0,1,.22-.76c-.16.16-.35.5-.51.66a1.7,1.7,0,0,1,.23-.72,1.1,1.1,0,0,0-.57.79l.08.2c-.06,0,0-.46.08-.55.19-.41.17.2.16.4l-.12.11c0,1.15.42-.13.62,0l-.2.81.3-.66a1.52,1.52,0,0,1-.13.8c.08.43.16-.28.22.19a.26.26,0,0,1,0,.15l.18-.23c0,.17-.06.58-.13.45.17.51.49-.55.49.08l0,.05c.38-.22.13-.6.5-1.26l-.07,1.51.13-.59s.1.08,0,.32c.21-.39,0-.27.17-.64.07.57.52-.18.38.79.15-.45-.1-.38.14-.67-.13,1,.25-.13.31.37-.15.52-.24.21-.17.71.26-.88.26.26.42.11.15-.71.34-.24.6-.43-.06.24.33.47.47.77l0,.12c.2-.71.37-.52.56-.63a2,2,0,0,1-.3.76l.14,0c.09-.22.16-.33.27-.39l-.16.52c.19,0,.53-.54.68-.12.14-.49.15-1.43.5-1.7a2.68,2.68,0,0,1-.27.83s.14-.2.16-.08l-.22.43c.06.22.15-.37.23-.3-.1.38,0,.29-.1.59,0,0,0-.18-.11,0a1,1,0,0,1,.11.65c.05-.22.13-.51.22-.54s-.06.47,0,.7c.12-.25.16,0,.32-.52.05,0,0,.29,0,.45.16-.22.46.06.53-.58l0,0,0,0c.48-.47.55.51.93.37l-.06.19c.26-.16.45,0,.72-.36,0,0,0,.39-.09.6.19-.09.28-.29.37.08-.25.28-.05.31-.22.19.12.23.05.54.43.1-.24.45-.09.64.05.53V5.25c.12,0,.19,0,.26.11l-.28.6c.06.89,1.14-1,.91.33.27-.39-.07-.38.22-.85.13.15-.07,1.1,0,1.13.07.42.58-.81.71-.48.07-.23.3-.82.57-1,.13.16-.21,1-.39,1.13s0-.08,0-.15a.44.44,0,0,0-.24.38l.12-.21c0,.26.2.33,0,.66a.41.41,0,0,0,.18-.48c.06.4.31.16.41.46,0-.13.12-.39.15-.38.17.41.33-.34.59-.33-.05.38-.44.75-.1.59a1.2,1.2,0,0,1-.4.72c.39-.32.19.44.25.56l-.18.12a.15.15,0,0,1,.19,0l.18-.44a.31.31,0,0,1,0,.3,7.85,7.85,0,0,1,.66-1c-.05.26.35-.09.06.47-.12-.32-.29.56-.53.54.07,0,.12,0,.13.09a.37.37,0,0,1-.11.13c-.08.6.46-.56.67-.42-.21.29-.3.61-.23.56s.27-.53.49-.71c0,.32.26-.08.32,0V7.51c.21-.28.26-.19.42-.22-.14.23-.19.1-.22.22.46-.45-.12.7.26.45-.07.25-.38.55-.41.73.42-.27-.12.5.25.31a1.17,1.17,0,0,1,.55-.61l-.46.07.59-.43c-.08-.07-.35.11-.36,0,.32-.25.24-.16.43-.51-.3.65.48-.16.33.33l-.74.92c-.15.55.7-.21.73.21l.07-.21c.35-.32.18.07.38,0a3.51,3.51,0,0,0-.49.62c.21-.21.12.15.72-.37l-.31.44c0,.3,1-.54,1.07-.25-.38.2-.56.44-.87.52,0,.06,0,.14.22,0-.19.16.56-.14.26.09.16-.07.52-.28.53-.2l-.17.1c.17-.1.29,0,.64-.29-.48.38-.42.47-.32.57s.19.24-.32.4c.15.08.32.22.34.34-.13,0-.21,0-.16,0-.39.11,1.18.16.72.36-.67,0-.34-.15-.6-.12-.67-.07-.63,0-.52,0s.26.19-.13.12l-.07,0c-.44-.09.43.31.27.41l-.18-.09c.55.37.63.69.61,1-.36-.35-.15-.23-.6-.51,0,.11.7.47.68.7a3.37,3.37,0,0,1-1-.52l.08-.13c-.61-.39-.11.16-.27.14l-.23-.21c-.07.23.5.77.27.93l.18.15c.43.67-.39-.22-.12.31l-.58-.54a3.36,3.36,0,0,1,.17,1.06,5.75,5.75,0,0,1-.46-1.24c-.08.07-.23.28,0,.61,0-.08-.11-.26,0-.2.32.55.38.9.2,1-1-1.19-.67.09-1.56-.74.05.68-.75.28-1,.62.84.85-.09.11.67,1.07,0,.12-.08.13-.13.08h0l-.69-.4c-.27-.24-.08-.27-.25-.49-.24.06-.38-.36-.7-.54.29.34.3.56.1.5l.48.35c.11.71-.83-.67-.72,0l-.14-.38c0,.13-.11.22-.18.36-.23,0-.62-.12-.67-.43l.5-.23c0-.94.28-1.94-1.14-2.41l-.85.7-.36-.4.77-.14c-.5-.36-.72,0-1,.35a.77.77,0,0,0-.46-.43l-.76,1c-.17-.35.29-.78-.34-.89-.36.48.53.75-.13,1.13-.5-.35-.43-.71-.88-.27a.37.37,0,0,1,.16-.53c-.42.35-1.2.31-1.35.84-.54-.44-1.52.4-1.62-.48a2.41,2.41,0,0,1-1.1.93c.58-1.17-1.57.22-1.57-.93-.4,1-2,.8-2.87,1.51,0-.09.12-.26.22-.23-.58,0-.79-.21-1.19-.32.08.79-.76,1.13-1.13,1.7-.84-.6.23-1-.13-1.65.16.61-1.07.86-.73,1.33-.62-.35-.5-.13-.9-.71.11,1-.45.27-.77,1-.85-.31-.38-.86-1.15-.39-.47-.21.21-.71.21-.71-.86.17-.25.8-.34,1.25-1,.42-.59-.43-1-.73-.6.33-.94,1.1-1.41,1.18-.06-.11-.16-.14-.09-.31-.54.72-2,.48-2.59,1.37a.48.48,0,0,1-.14-.15,2.51,2.51,0,0,1,.35,1c-.38.1-.6.62-.85.18.24,0,.21-.23.29-.41l-.35.3c-.52-.59.48-.36.37-.86-.73.4-1.49,1.17-2.13,1.12-.28-.63,1.33-.55.4-.95l1,0c-.95-.88.57-.06-.33-1-1.26.09-1.28.65-2.53.75-.18.44.23.52,0,1-1.54,1.07-1.75-1.32-2.79-.13-.21.52-.12,1.38-1.13,1.17l.11-.82c-1.18.23-.38,1.24-1.73,1.06.14-.35.85-.48.65-.53-.94-.38-.45.57-1,.73l-.3-.63c-1.21.45-2.44,1.28-3.77,1.79,0-.22.2-.49-.18-.6a14.81,14.81,0,0,1-5.46,1.09l-.46.75c-.15,0-.35-.17-.22-.32-.71,0,.07.36-.17.68-.35.15-.58-.18-.4-.42-1,.83-2.9,2-4.28,1.82l.17-.24c-1,.08-.66,1.49-1.69,1.25l.13-.15c-2.08.42-4.11,1.69-5.92,1.41,0,.89-2.1.36-1.82,1.51-1.33-.12-1.09-.46-2.82-.21-.44.11-.36.93-.84,1.25l-.24-.57-.48.87-.64-.54L69,28a.51.51,0,0,1,.56.27,2,2,0,0,1-2.16.06L65.8,29.51c0-.18.1-.35.25-.52-.54.6-.33-.64-.94.2.17.08.08.36.1.49A3.33,3.33,0,0,0,63,30.4l0-.46c-1.37.49-2.72,1.41-4.2,2.09a.51.51,0,0,1,.39.92l-.44-.51c-.12.49.55,0,.18.73-.58.18-.68-.51-.45-.84l-.58.51c-.12-.16,0-.33-.07-.57-.1.49-1.43-.05-1.53.78l-.12-.16c-1.48.69-2,1.22-3.21,1.85.23.51-.29.63-.44,1.21a12.64,12.64,0,0,0-3.13,1c-.6.63,0,.53-.16,1-.3-.43-1.3.18-.94-.44a14.93,14.93,0,0,0-2.88,2.19c.27.09.5.06.49.26-.24.24-.74.19-.82,0l0-.09c-1.33,1.64-4.75,1.06-5.55,2.83l.05-.09L38.47,43.9c-.69.34.17-.57-.47-.53-1,1.67-2.43,1.47-3.33,2.75-1.81-.57-3.24,2.44-5,2.62l.28.23c-.1.52-.51.13-.79.25.2.19.54,0,.46.29-2.4,2.4-5.75,4-8.54,6.19-1,.84.77,1.83-1,2.35l-.14-.79c-1.28,2.36-3.69,3.81-4.83,6.17,0-.21-.17-.34,0-.53-.71.1-1.27,1.53-1,1.77-.28.28-.33-.15-.64-.08-.56.24-.36,1.43-.9,1.37-.1,0,0-.22,0-.32,0,.43-1,1.28-.38,1.34-.78.61-.88,1.6-1.56,2.06.23.75-1.16,1.18-.52,1.79-.74-.56-1.5,1-1.45,1.76-.13-.31-.52.31-.72-.09-.35.6-.53,1.23-.06,1.36-1.55.59-.46,2.63-2,2.63-.23,1-.48,2-.73,2.94s-.46,1.86-.71,2.74c-.82-.4.7-1.9-.2-2.2A20.2,20.2,0,0,0,4,82.31a5.07,5.07,0,0,1-.54,2.18c-.26.37-.28-.37-.37-.57a18.05,18.05,0,0,1-.66,2.46A6.84,6.84,0,0,0,2,88.74c-.08,0-.13-.22-.16-.39-.05.31-.3.66.11.73l0-.32c.69-.31.92,1.48,1.21,1.6-1-.77-.64,1.4-1.9.27,0,.21.16.5.44.52-.15.27-.33.32-.56,0,0,1.12.5.83.3,1.79-.2,0-.23-.25-.44-.4a2.12,2.12,0,0,1,.25,1.92c-.11-.07-.28,0-.23-.25-.2,1.43.68,2.55.09,4-.81-.55-.33.5-1.07.52l.16.87.38-.31c-.05.74.41,1.42.16,2l-.29-.56c0,.46.08.93.11,1.39l.3-.78c.37.76.94,0,.72.92-.07-.2,0,.72-.46,1.1h0a1.42,1.42,0,0,1,.35,1.26c-.24.15-.84-.08-1,0,.65.33.22,1.72,1,2.12a.75.75,0,0,0-.64-.06l.54.26c-.13.35-.2.41-.52.38,0,1,.91-.41.63.83-.06-.09-.13,0-.22-.22-.12,1.24.65,2.28.55,3.42-.69.47-.33-.94-.9-.45.41,1.6,1.53,3.12,1.78,4.66v-.3c1.08-.08-.22,1.26.52,1.88-.13-.16-.64-.07-.51-.06a4.66,4.66,0,0,0,.61,1.6l1.18,1.81-.32-.09a11.14,11.14,0,0,0,.63,2.27c.32.08.43.46.71.08a3.13,3.13,0,0,0,1,2.87,3.36,3.36,0,0,1,1.2,2.57c-.11-.19-.47-.35-.38-.2l1,1.27c.33-.34.14-.32.29-.79a1.43,1.43,0,0,1,.93.65c-.62-.45-.63.37-.7.77.1-.12.29-.11.4-.2-.29,1.13.86-.36,1,.88l-.24.08c.33.29.81.43,1,.85-.35.44-.45-.24-.84,0,.38.52,1.51.5,1.4,1.27-.28-.14-.49-.46-.76-.61a1.36,1.36,0,0,0,.17,1.29v0l.37,1v-.32c1.58-.14,1.15,1.17,2.51,1.5-1.3-.32-.5.16-1,.46,0,.32.13.76-.08.77.7.11.22.92,1.22,1.05-.13.15.33.44-.13.65.54.43.17-.33.4-.44,1.14.37.89,2.39,2.56,2.9,1.12.69,1.76.42,2.78,1,0,.5-.73.25-.73.25a2,2,0,0,0,1.17,1.24c-.21,0-.22.22-.25.51.38.31.73-.27,1,.38a2.59,2.59,0,0,1-.89.21c.53.28,1.18.42,1.73.69-.12.36-.61.13-.92.14.58.36,1.46,1,2,.71l-.14-.32a.47.47,0,0,1-.46.27c-.71-.08-.47-.7-.36-.86l.39.19c.48-1.12-1.32-1-1.87-1.67l.83-.34-1.09-.13c0-.28.28-.69.65-.48-.11-.72-.57-.18-.6-.86,0-.09.06-.1.12-.09l-.57-.25c.2,0,.36-.47.51-.13-.35-1.08-1.59-.8-1.38-1.52l.1,0c-1.17-.89-.55.31-1.81,0l.67-1.54-.55.29c-.08-.13-.24-.38,0-.5-.67-.15-.14.25-.65.25,0-.91-1.46-1.37-.79-2.11-.52.09.14.77-.58.36.69-.82-.68-.59-.7-1.4.55-.17.7.49.69-.32-1,.24-.59-1.13-1-1.47-.61.41-.93-.8-1.65-1.42.22-.08-.61-1.67-.84-2.53l.12,0c-.71.24-1-.59-1.51-1.06a.84.84,0,0,1,.95,0l-.31-.51a.92.92,0,0,1-.74-.4l.56-.14C10,126.8,9,126.39,8.89,125.3c-.49.18-.89,1.4-1.7.56.23-.16.63-.41.86-.21-.07-.06-.36-.19-.34-.42l.62.19c0-.52-.46,0-.59-.41.35-.16.12-.37.43-.46.08.07,0,.37.2.42a1.62,1.62,0,0,1,.06-1.25c-.19.13-.48.23-.65,0-.36-.71.31-.44.3-1-.33-.06-.28-.63-.83-.41-.09-.21.15-.36.26-.51-.39-.27-.8-1.74-1.2-1.08v.11s0,0,0,0c-1-1.06-.7-2.76-1.32-4l.19,0c-.48-.7-.64-1.67-1.19-2.12-.06-.24.2-.64.46-.6-.3-.55-.54-.57-.4-1.51.46.53.26-.27.38.56,0-.81.28-1-.43-1.77.55.19.51-.69.32-1l-.28.6a3.89,3.89,0,0,1-.16-1.15l.69.09A2.66,2.66,0,0,0,4,107.73c-.33-.64-.63-1.26,0-1.91-.49-.39-.27.89-.84.55,0-.75,1-1.56,1-1.79.32-1-1-.91-.74-2a.72.72,0,0,1-1.09-.56c.1-.76,1-.88,1.19-.41,0,.18-.06.26-.14.25.09.24.18.55.45.27l-.24-.1c.24-.36.25-1.37.63-1.11-.18-.56-.37-.26-.52.15.41-.92.12-1.47.42-2.42-.14.14-.43.26-.42.1.45-1.39-.37-.67-.35-1.66.43-.51.83.31.66-.71.32-.56.64,0,.8.22-.35-.94.53-1.58.71-2.06l.11.49a1.64,1.64,0,0,1,0-.74l-.52.18c.13-.26.18-.48.37-.44-.25-.34-.82.07-1.13-.57.31-.31,0-1.16.6-1.15-.43,1.09.64,0,.56,1a1,1,0,0,1,.13-.67c.08,0,.12.06.15.14.78-.94-.59-.64-.31-1.75a.45.45,0,0,0,.69-.29c-.11.44-.63.07-.79-.41.45-.64,0-.83.13-1.19a4.11,4.11,0,0,0-.24.39C5,89.3,5.13,89,5.17,88.43c.28,0,0,.5.22.36-.43-.73,1-1.05.82-1.94.34-.27.65.18.89-.08-.14-1,.79-.74.74-1.73-.54.09-.45.17-.66-.61L7,86l-.32-1.16c-.17.44,0,1-.23,1.26-.2-.57-.11-.49-.56-.41.9-.36,0-1.34.75-1.88l1.1.45c.87-.83.19-2,1-3.25l-.37.35C8,81,8.66,80.5,8.7,80c.34.2.59,0,.9-.07-.27-.1.48-.92-.17-1.4l.75-.34c.74-.91-.35-1.69.31-2.62.21.51.69.2.6,1,.19-.33.41-.59.17-.73.31-.07.08-1.15.58-1.26-.07-.22-.4-.48-.15-.83a.32.32,0,0,1,.17.11c-.17-.1.12-.71-.45-.62.82-.18,1.24-.87,1.65-1.55s.78-1.37,1.52-1.46A21.38,21.38,0,0,1,15.86,68c.07.11.16.12,0,.21.92-.59-.5-1.19.56-1.86.87-.07-.12.7.3.56,1.12.7.74-1.22,1.84-1.33l-.07.2c.73-.16.59-1.42,1.31-2.1a.28.28,0,0,0,.15.13A5.52,5.52,0,0,1,21.19,61c.16.56-.1.5.4.72.24-.36-.69-.48-.2-1.2.39,0,1-.27,1.45.07l-.55.58c.8.21.72-.74,1.11-.95l.18.26c.8-.92.25-1.52,1.27-2.37L24.59,58c0-1.06.75-.09.89-1l.69.43a11.67,11.67,0,0,1,1.3-2.35,7.78,7.78,0,0,1-.78,2.31c.35-.32,1.17-1.09,1.1-1.55-.09.19-.15.49-.37.52a2.92,2.92,0,0,1,1.15-2.19c.84,1.29,2.16-1.25,3.43-.74,1-1.45,2.75-1.8,4.27-3-1.25-.57.44-.35-.36-1.28.32-.33.47-.41.55-.37h0L38,48.65c.47.11-.2.46,0,.67.87-.48.63.19,1.35.1-.35-.29-.07-.71.49-.89l-1,0c.78-1.32,1.56.2,2.37-1.09l-.16.56c.47-.58,2.2-1.41,2.29-2.6.18.06.5.26.28.5,1.51-.77,2.73-2.84,4.18-3l0,.32c.23-.23.21-.76.71-.69,0,.12,0,.33.17.27s.48-.87.94-.92l-.16.47c1.64-.46,1.86-1.93,3-2.77.41.78,1.7.43,2.35.28l0,.12c1.77-.78,2.62-2.11,4.11-3.2,1.42.39,3.61-1.22,5.47-1.44-.31,0-.23-.65,0-.86.46,0,.83-1,1.09-.25l-.15,0c.61.61,1.32.08,2-.16l-.3-1c2.21.74,4.1-2.27,5.51-1.33.31-.4.8-.59,1.11-1l.18.54a13.25,13.25,0,0,0,3.06-1l-.14.48c.78-.25.42-1.89,1.13-2.18l.5.72c1.36-.5,3-.27,4.08-1.45,0,.12.06.37-.15.48.64-.21,2.67-.28,2.07-1.31.25.71,1.44-.4,2.08-.95l.06.57c.41-.88.37-1.07,1.19-1.54.23,0,.32.37,0,.32.78.06.38-.67,1.32-.65l-.22.44c.73-.18.62-.34.89-.86a1.3,1.3,0,0,1,1.66.17c0-.32.28-.83.75-.81.11.16,0,.32-.07.4,1.3,0,1.6-1.15,2.59-.86.06.18.14.25.23.28a10.7,10.7,0,0,1-1.68.4c.14.49.94.35.52,1.21.51-.55,1.34-1.66,2.16-1.64a1,1,0,0,1,.15.14L96,23.7a.66.66,0,0,0,.46-.21,2.05,2.05,0,0,0,.66,0c.2.39,1,0,1.34-.1-.18-.54.35-.59-.24-.91.07,0-.06.09-.31.18a.56.56,0,0,0-.15.1v-.05l-1,.29c.23-.35.49-.67,1-.49a9.93,9.93,0,0,1,.3-1c.74.61,1.87.75,2.13,1.18,1.1-.62,2.73-.93,3.22-2.14.3-.22.46.2.63.33-.17.15-.41.19-.47.36.6-.43,2-.6,2-1.35.93.11-.32.78.82.37l-.1.26c2.56.59,3.32-2.73,6.23-1.82-.2-.06-.3-.08-.36-.19,3.06,0,5.92-1.91,9-1.42.86.05.86-.43,1.3-.88l.29.56.74-.84c1.14-.72,2.38,1.08,3.77-.13l-.27-.37c.57,0,1.73-.53,1.71-.05,0-.08.12-.45.37-.27l.06.31,1.29-.75c1.08.06.08,1.21,1.5,1.1,0,.13.1.52-.07.43l-.11-.33c-.55-.11-.06,1-.24,1.38-.47-.74-.89-.81-1.1-.84l-.06-.11c-.45.15-.28,1-.47,1.56-.73-.67-1,.14-1.63-.09a1.36,1.36,0,0,1,.33.7c-.18-.1.07.67-.33,0h0c-.48-.64-.55-.35-.7-.29l.52.92c-1.15-1.1-.67,1.06-1.58,0,0,.28-.06.34,0,.62l-.28-.49a.79.79,0,0,0-.72.32l-.14-.39c-.19.07.61,1.54.46,1.66l-.47-.7c-.3.19-1-.28-.89.56,0-.11-.16-.33-.13-.39-.16.07-.84-.18-.21.8-.38-.66-.35.11-.35.49l-.25-.5c.21.7.3.87.2,1.15-.08,0-.26-.36-.12-.27-.3-.17.13.53-.2.37l-.1-.35c-.18.05-.07.21,0,.62,0,.25-.37.05-.64-.38.13.28.25.69.08.62a1,1,0,0,1-.14-.34c-.45-.19-.08.78-.53.4a1.19,1.19,0,0,0-.19-.27c.22-.11.4-.17.41-.13-.25-.45-.47-.43-.67-1.13,0,.42.22,1.28-.06,1.16l-.11-.14v-.06c-.06,0-.07,0-.06.13s-.16-.08-.22-.06c-.22-.36-.3-.1-.4-.07.28.49.13.47.46.82,0,0,0-.07,0-.12a.08.08,0,0,0,0-.07l0,.05a1,1,0,0,1,.19-.15c.07.29.12.54-.12.31l.31.86c-.49-.62-.92-.87-1.18-1.27-.11.42-.51.51-.17,1.53,0,.16-.23-.22-.34-.35s.05-.13,0-.28c0,.32-.39.33-.07,1-.35-.19-.22-.65-.42-.41l-.07-.22c-1.06-.76.07,2.11-1.21,1.07a.57.57,0,0,1,.19.19c-1-.25-1,1.26-2.16.65-.28-.09-.08.34,0,.71l-.32-.51.13.71c0,.6-1.14-1.07-1,0l.23.34c-.15,0-.27.41-.47,0,0,.08.16.4,0,.24l-.15-.28,0,.63c-.33-.08-.53-1.13-.9-1a2.29,2.29,0,0,0,.2,1.17c.06,0,.22.11.37.39l0,.21a5.77,5.77,0,0,0,1.32,2.17l-.06-.61.27.37-.16.11c.29.33.18,0,.13-.3a1.56,1.56,0,0,0,.31.4l-.2-.89c.19.31.24.69.46.8-.1-.42-.46-.68-.43-1,.29.33.42.65.36.27a.9.9,0,0,1,.18.47c0-.31.21-.25,0-.71.34.41.28-.3.67.49a1.72,1.72,0,0,1-.07-.78c.32,1,.37-.13.85.9-.31-.91.25-.61.23-1.19,0,.07.07.22,0,.19.16,0,.33.24.49.36a4.54,4.54,0,0,1-.36-1.44c.5.58.34.86.72,1.48-.3-.56,0-.7-.33-1.14a2.36,2.36,0,0,1,.57.69c-.44-.88,0-.21-.16-.79.4.34.48.79.52.43a1,1,0,0,1,.23.61c.19-.08-.25-.68-.41-1.08.12-.3.35.43.61.72,0-.25-.17-.9,0-.93a1,1,0,0,1,.15.28c-.13-.6.42-.26.24-1a.72.72,0,0,1,.11.15,9.72,9.72,0,0,1-.5-.88c.08-.06-.07-.5.19-.09-.06,0,0,.19.08.34v-.23c.4.57,0,.27.23.72.07-.29,0-.9.21-.8.35.59-.19.37.27.81l-.33-.12c.67.86-.15,0,.53.93.36,0,.13-.46.49-.43-.12-.37-.28-.48-.4-.85,0-.79,1.11,1.35,1,.4-.14-.44-.53-1.2-.11-.91l.3.71c.29-.07-.39-1.05.13-.74.1.29-.08.33,0,.39.47.44-.08-.45,0-.52l.35.58c.22-.25.29-.84.53-1.11a1.31,1.31,0,0,0,.3.54c.21-.51.85-.37,1.41-.23l-.15-.59s.19.2.21.32c.26.11-.17-.33-.22-.57.07-.08.28.23.31.41,0-.57.19-1.33.76-.93l0,.18c.32.09-.37-1.18.1-.81v.11c.57,0,.79-.78,1.57-.21-.36-.77.63.07.07-1,.55.36.58.59,1.14.72.12,0-.24-.72-.18-.9l.31.53-.17-.65.46.58,0-.2c-.06,0-.23-.18-.31-.34,0-.34.63.12.8.39l.14-.69a1.16,1.16,0,0,1,.12.5c-.11-.67.37.53.28-.08a2.69,2.69,0,0,1-.24-.43c.29.25.52.12.61-.11l.19.38c.36-.08.53-.56.87-.77a1.32,1.32,0,0,1-.53-.85l.39.53c-.15-.39-.24-.15-.37-.65.17,0,.48.58.52.8l0-.28a4.13,4.13,0,0,1,.25.48c-.15-.38.61.39.33-.26l.11.16c.34-.21.38-.49.63-.69-.29-.48-.12-.44-.28-.88.29,0,.76.25,1,.05,0-.34-.21-.43-.32-.76.29.42.51.23.59.62a1.43,1.43,0,0,0,.44-.92c-.15-.15-.25-.19-.32-.35s.27.08.39.29l0,.05c0-.89,1.78.59,1.5-.51V18c.21,0,.13.38.43.56-.14-.95.65-.29.6-1,1.14,1,.75-.7,1.65-.18l-.24-.26c-.14-.34.22.08.33.1-.18-.21-.28-.18-.35-.37a1.61,1.61,0,0,1,1.12-.77,4.84,4.84,0,0,0,1.59-.52c.37-.26-1.21-1.4-.24-1.21l.41.53c0-.59.24-.8.57-1.31a1.68,1.68,0,0,0,.39-1.53c.13.1.32.15.29.25.55-.1.21-.83-.19-.86.07-.15.36,0,.57-.07S142.68,10.77,143.16,10.67ZM93.84,20.92c0-.15-.36-.15-.65-.24a5.28,5.28,0,0,0,.71-.18C94,20.67,94,20.88,93.84,20.92Zm1-.71h0l.39-.14Zm2.88,3v-.07a1,1,0,0,1,0,.3c-.23.14-.35.06-.41,0A4.15,4.15,0,0,0,97.7,23.24Zm23.54-.73c0-.1-.09-.19-.11-.26s.09,0,.15.08a.44.44,0,0,0-.06.12Zm2.11,3,.07-.09h0Zm.25-.23c-.1-.16-.18-.34-.14-.36s.18.18.31.29A.77.77,0,0,0,123.6,25.31ZM132.19,16c-.05-.08-.1-.18-.14-.23h0l.14-.07C132.26,15.79,132.42,16.14,132.19,16Zm.19-.07-.13-.24a3.21,3.21,0,0,0,.67-.48C132.81,15.55,132.81,16.11,132.38,15.88Zm.78-1,.13-.16a1.44,1.44,0,0,0,.17.55A1.31,1.31,0,0,1,133.16,14.9Z"/><path class="cls-1" d="M121.38,23s0,0,0,.05l.1.09-.07-.16Z"/><path class="cls-1" d="M129.48,4a.31.31,0,0,1,0-.09.2.2,0,0,0,0,.07Z"/><polygon class="cls-1" points="129.27 23.34 129.19 23.22 129.23 23.35 129.27 23.34"/><path class="cls-1" d="M126.82,1.23l-.1-.23A.74.74,0,0,0,126.82,1.23Z"/><path class="cls-1" d="M126.12.8c0,.1,0,.17-.06.24h0Z"/><path class="cls-1" d="M138.15,4.48h0C138.31,4.43,138.24,4.44,138.15,4.48Z"/><path class="cls-1" d="M134.18,3.88a1.71,1.71,0,0,1,.21-.19C134.35,3.62,134.31,3.59,134.18,3.88Z"/><polygon class="cls-1" points="142.28 7.41 142.27 7.41 142.29 7.45 142.28 7.41"/><path class="cls-1" d="M134.55,3.77c0-.13-.08-.13-.16-.08S134.46,3.82,134.55,3.77Z"/><path class="cls-1" d="M122.81,0a.2.2,0,0,1,0,.09l0-.06Z"/><path class="cls-1" d="M122.79.09l-.05.06S122.78.15,122.79.09Z"/><path class="cls-1" d="M122.64.28l.1-.13S122.68.12,122.64.28Z"/><path class="cls-1" d="M124.14.41C124.07.35,124,0,123.9.06l0,.16C124-.07,124,.74,124.14.41Z"/><path class="cls-1" d="M125,3.1l-.21-.2c0,.22,0,.51-.11.55C124.85,4.14,124.68,3,125,3.1Z"/><path class="cls-1" d="M125.68,3.55c-.15.07-.06.31-.09.43C125.71,3.8,125.74,3.75,125.68,3.55Z"/><path class="cls-1" d="M130.81,5.42c.11,0,.06-.19.17-.48Z"/><polygon class="cls-1" points="132.89 2.81 132.9 2.48 132.69 2.9 132.89 2.81"/><polygon class="cls-1" points="132.1 6.49 132.32 6.38 132.17 6.44 132.1 6.49"/><path class="cls-1" d="M138.29,10.43l.62-.17C138.79,10.25,138.09,10.44,138.29,10.43Z"/><path class="cls-1" d="M137.93,12.48c-.25-.2-.44-.29-.28,0C137.75,12.44,138,12.57,137.93,12.48Z"/><polygon class="cls-1" points="127.54 18.45 127.62 18.44 127.58 18.22 127.54 18.45"/></g></g></svg>