<svg xmlns="http://www.w3.org/2000/svg" viewBox="0 0 91 91"><defs><style>.cls-1{fill:#fff;}</style></defs><title>Icon 5</title><g id="Layer_2" data-name="Layer 2"><g id="Layer_1-2" data-name="Layer 1"><path class="cls-1" d="M45.5,91A45.5,45.5,0,1,1,91,45.5,45.55,45.55,0,0,1,45.5,91Zm0-90A44.5,44.5,0,1,0,90,45.5,44.55,44.55,0,0,0,45.5,1ZM59.84,48.37a.48.48,0,0,0,.48-.47.47.47,0,0,0-.48-.47H51.78a.47.47,0,0,0,0,.94ZM49.28,60.28A1.77,1.77,0,1,1,51,58.51,1.77,1.77,0,0,1,49.28,60.28Zm0-2.6a.83.83,0,1,0,.82.83A.83.83,0,0,0,49.28,57.68ZM31.43,66.13a3.63,3.63,0,0,1-3.61-3.63V30.81c0-.73.66-1.62,5.59-2.7,1-.22,2.69-.55,5-.89h.12l2.43-2.61.14-.13.09,0h.06l.05,0h8.49l.12,0,0,0,.06,0,.07.07h0l2.44,2.63h.13c.88.12,2.93.45,5,.89,4.93,1.08,5.59,2,5.59,2.7V62.5a3.63,3.63,0,0,1-3.61,3.63ZM57.31,34.69a.47.47,0,0,1-.35.52l-4,1,2,3.3a.47.47,0,0,1,0,.54L46,50.71V65.18h13.6a2.68,2.68,0,0,0,2.68-2.68V30.78l-.11-.11c-.26-.24-1.26-.89-5.06-1.7l-.48-.1ZM33.91,29c-3.79.81-4.79,1.46-5,1.7l-.11.11V62.5a2.69,2.69,0,0,0,2.68,2.68H45V50.72L36.08,40a.47.47,0,0,1,0-.54l2-3.31-4-1a.46.46,0,0,1-.36-.51l.71-5.82Zm9.85,14,1.74,5.88L47.25,43,45.88,31.59h-.75Zm8.59-14L48.19,43.09l0,.11-1.58,5.29L54,39.69l-2.12-3.56a.52.52,0,0,1,0-.42.45.45,0,0,1,.32-.28l4.18-1-.69-5.69-.25,0c-1-.19-1.9-.34-2.48-.42l-.3,0Zm-14.63-.74c-.56.09-1.29.21-2.1.36l-.25.05-.7,5.7,4.18,1a.51.51,0,0,1,.32.29.45.45,0,0,1,0,.42L37,39.69l7.38,8.79-1.57-5.31,0-.08L38.4,28.16Zm3,4.46,2.36,8,1.14-9.47-.84-1.41Zm6.06-1.5,1.14,9.47,2.35-8-2.64-2.92Zm-7.51-3.45,1.15,3.9,3.61-4-2.66-2.19ZM47,27.7l3.61,4,1.16-3.9-2.11-2.25ZM44,29.09,45,30.65H46L47,29.09l-.88-1H44.91Zm.85-1.92h1.25L47.61,26l.73-.62H42.66Z"/></g></g></svg>