<svg xmlns="http://www.w3.org/2000/svg" viewBox="0 0 27.94 35.19"><title>Icon 3</title><g id="Layer_2" data-name="Layer 2"><g id="Layer_1-2" data-name="Layer 1"><path d="M4.93,35.19C2.21,35.19,0,33.26,0,30.89v-.1L2.09,7.52a.5.5,0,0,1,.49-.47H7.31v-.4a6.66,6.66,0,0,1,13.31,0v.4h4.74a.51.51,0,0,1,.49.48l2.09,23.29v.07c0,2.37-2.21,4.3-4.92,4.3ZM1,30.91a3.74,3.74,0,0,0,4,3.31H23c2.14,0,3.95-1.5,3.95-3.27l-2-22.87H20.62v3.54a.49.49,0,0,1-1,0V8.08H8.34v3.54a.49.49,0,0,1-1,0V8.08H3.05ZM14,1A5.63,5.63,0,0,0,8.34,6.65v.4H19.59v-.4A5.62,5.62,0,0,0,14,1Zm3.92,26.85A2.68,2.68,0,0,1,16,27.11a2.72,2.72,0,0,1-.77-1.91,2.63,2.63,0,0,1,2.69-2.68,2.84,2.84,0,0,1,1.92.78,2.67,2.67,0,0,1,.76,1.9,2.72,2.72,0,0,1-.77,1.91A2.67,2.67,0,0,1,17.89,27.88Zm0-4.28a1.63,1.63,0,0,0-1.18.48,1.69,1.69,0,0,0-.48,1.17,1.63,1.63,0,0,0,.48,1.17,1.68,1.68,0,0,0,1.18.49,1.66,1.66,0,0,0,1.65-1.66,1.65,1.65,0,0,0-.48-1.17A1.67,1.67,0,0,0,17.89,23.6ZM8.8,27.46a.51.51,0,0,1-.51-.52.42.42,0,0,1,.14-.29L18.85,16.23a.51.51,0,0,1,.36-.15.37.37,0,0,1,.3.13.53.53,0,0,1,.18.41.37.37,0,0,1-.13.28L9.14,27.32A.57.57,0,0,1,8.8,27.46ZM10.1,21a2.83,2.83,0,0,1-1.91-.77,2.7,2.7,0,0,1-.78-1.94,2.54,2.54,0,0,1,.82-1.82,2.67,2.67,0,0,1,1.9-.8,2.7,2.7,0,0,1,2.67,2.67A2.66,2.66,0,0,1,12,20.27,2.86,2.86,0,0,1,10.1,21Zm0-4.37a1.72,1.72,0,0,0-1.19.51,1.58,1.58,0,0,0-.51,1.14,1.74,1.74,0,0,0,.51,1.26,1.69,1.69,0,0,0,2.39-2.4A1.72,1.72,0,0,0,10.07,16.67Z"/></g></g></svg>