<svg xmlns="http://www.w3.org/2000/svg" viewBox="0 0 91 91"><defs><style>.cls-1{fill:#fff;}</style></defs><title>Icon 6</title><g id="Layer_2" data-name="Layer 2"><g id="Layer_1-2" data-name="Layer 1"><path class="cls-1" d="M45.5,91A45.5,45.5,0,1,1,91,45.5,45.55,45.55,0,0,1,45.5,91Zm0-90A44.5,44.5,0,1,0,90,45.5,44.55,44.55,0,0,0,45.5,1ZM67.27,61.11H23.73a.51.51,0,0,1-.5-.5V45.06a.5.5,0,0,1,.5-.5H67.27a.5.5,0,0,1,.5.5V60.61A.51.51,0,0,1,67.27,61.11Zm-43-1H66.77V45.56H24.23Zm4-21a.48.48,0,0,0,0-.7l-3.81-3.81,3.81-3.81a.5.5,0,0,0-.71-.71L23.38,34.2a.5.5,0,0,0,0,.71l4.16,4.16a.51.51,0,0,0,.36.15A.5.5,0,0,0,28.25,39.07Zm35.21,0,4.16-4.16a.51.51,0,0,0,0-.71L63.46,30a.5.5,0,0,0-.71.71l3.81,3.81-3.81,3.81a.5.5,0,0,0,.35.85A.51.51,0,0,0,63.46,39.07Zm4.31-4.51a.5.5,0,0,0-.5-.5H23.73a.5.5,0,0,0-.5.5.51.51,0,0,0,.5.5H67.27A.51.51,0,0,0,67.77,34.56ZM29.6,52.83V45.06a.5.5,0,0,0-.5-.5.5.5,0,0,0-.5.5v7.77a.5.5,0,0,0,.5.5A.5.5,0,0,0,29.6,52.83Zm6.29-2.56V45.06a.5.5,0,0,0-.5-.5.5.5,0,0,0-.5.5v5.21a.51.51,0,0,0,.5.5A.5.5,0,0,0,35.89,50.27Zm6.3,2.56V45.06a.5.5,0,0,0-1,0v7.77a.5.5,0,0,0,1,0Zm6.3-2.56V45.06a.5.5,0,0,0-.5-.5.5.5,0,0,0-.5.5v5.21a.5.5,0,0,0,.5.5A.51.51,0,0,0,48.49,50.27Zm6.29,2.56V45.06a.5.5,0,0,0-.5-.5.5.5,0,0,0-.5.5v7.77a.5.5,0,0,0,.5.5A.5.5,0,0,0,54.78,52.83Zm6.3-2.56V45.06a.5.5,0,0,0-1,0v5.21a.5.5,0,0,0,1,0Z"/></g></g></svg>