<svg xmlns="http://www.w3.org/2000/svg" viewBox="0 0 30.44 30.72"><title>Icon 2</title><g id="Layer_2" data-name="Layer 2"><g id="Layer_1-2" data-name="Layer 1"><path d="M0,30.72v-24A6.67,6.67,0,0,1,6.67,0h17.1a6.68,6.68,0,0,1,6.67,6.67v13a6.68,6.68,0,0,1-6.67,6.66H9.35ZM6.67,1A5.67,5.67,0,0,0,1,6.67V29.15l8.24-3.79H23.77a5.68,5.68,0,0,0,5.67-5.66v-13A5.68,5.68,0,0,0,23.77,1ZM19.92,20l-4.7-2.47L10.52,20l.89-5.23-3.8-3.71,5.26-.77,2.35-4.76,2.35,4.76,5.26.77L19,14.77ZM9.76,11.76l2.73,2.66-.65,3.75,3.38-1.77,3.37,1.77L18,14.42l2.73-2.66-3.78-.55L15.22,7.79l-1.69,3.42Z"/></g></g></svg>