<svg xmlns="http://www.w3.org/2000/svg" viewBox="0 0 91 91"><defs><style>.cls-1{fill:#fff;}</style></defs><title>Icon 7</title><g id="Layer_2" data-name="Layer 2"><g id="Layer_1-2" data-name="Layer 1"><path class="cls-1" d="M58.51,65.77h-26a5.42,5.42,0,0,1-5.42-5.42v-26a5.42,5.42,0,0,1,5.42-5.42h26a5.42,5.42,0,0,1,5.42,5.42v26A5.42,5.42,0,0,1,58.51,65.77Zm-26-35.85a4.43,4.43,0,0,0-4.42,4.42v26a4.43,4.43,0,0,0,4.42,4.42h26a4.43,4.43,0,0,0,4.42-4.42v-26a4.43,4.43,0,0,0-4.42-4.42Zm4.35,3.44V25.73a.5.5,0,0,0-1,0v7.63a.5.5,0,0,0,1,0Zm18.32,0V25.73a.5.5,0,0,0-1,0v7.63a.5.5,0,0,0,1,0Zm-12,20.14L54.74,41.89a.5.5,0,0,0,0-.7.5.5,0,0,0-.71,0L42.78,52.44,37.34,47a.5.5,0,0,0-.71,0,.5.5,0,0,0,0,.7l5.79,5.79a.51.51,0,0,0,.36.15A.5.5,0,0,0,43.13,53.5ZM45.5,91A45.5,45.5,0,1,1,91,45.5,45.55,45.55,0,0,1,45.5,91Zm0-90A44.5,44.5,0,1,0,90,45.5,44.55,44.55,0,0,0,45.5,1Z"/></g></g></svg>