<svg xmlns="http://www.w3.org/2000/svg" viewBox="0 0 36.68 37.43"><title>Icon 4</title><g id="Layer_2" data-name="Layer 2"><g id="Layer_1-2" data-name="Layer 1"><path d="M16.25,26.11a4.15,4.15,0,0,1-3.35-1.7l-.36-.48-.36.48a4.16,4.16,0,0,1-3.35,1.7H5.12a.47.47,0,0,1-.48-.47V22.4H.48A.47.47,0,0,1,0,21.93V6.35A4.17,4.17,0,0,1,3.28,2.26L8.72,1.05h0a.54.54,0,0,1,.53.31l3.26,9.78L15.8,1.36A.53.53,0,0,1,16.27,1L21.8,2.26a4.17,4.17,0,0,1,3.28,4.09V21.93a.48.48,0,0,1-.48.47H20.44v3.24a.48.48,0,0,1-.48.47ZM18.55,6a.51.51,0,0,1-.08.49L13,12.82v9.11a3.23,3.23,0,0,0,3.23,3.23h3.23V8.94a.48.48,0,0,1,1,0V21.45h3.68V6.35a3.21,3.21,0,0,0-2.53-3.16L17,2.18ZM5.12,8.46a.47.47,0,0,1,.47.48V25.16H8.83a3.23,3.23,0,0,0,3.23-3.23V12.82L6.61,6.47A.47.47,0,0,1,6.53,6l1.52-3.8-4.56,1A3.21,3.21,0,0,0,1,6.35v15.1H4.64V8.94A.47.47,0,0,1,5.12,8.46Zm8.64,2,3.79-4.43L16.29,2.9ZM7.52,6.06l3.79,4.43L8.79,2.9Zm10.13,11.7v-1H14.84v1Zm-13,19.52a.5.5,0,0,0,0-.71l-3-3,3-3a.48.48,0,0,0,0-.7.5.5,0,0,0-.71,0L.6,33.21a.51.51,0,0,0,0,.7L4,37.28a.51.51,0,0,0,.36.15A.49.49,0,0,0,4.68,37.28ZM36.53,4.22a.5.5,0,0,0,0-.71L33.16.14a.5.5,0,0,0-.7,0L29.09,3.51a.5.5,0,0,0,0,.71.5.5,0,0,0,.7,0l3-3,3,3a.54.54,0,0,0,.36.14A.52.52,0,0,0,36.53,4.22ZM33.31,33.56V1a.5.5,0,1,0-1,0v32H1a.5.5,0,0,0,0,1H32.81A.5.5,0,0,0,33.31,33.56Z"/></g></g></svg>