<svg xmlns="http://www.w3.org/2000/svg" viewBox="0 0 10.51 10.5"><defs><style>.cls-1{fill:#fff;}</style></defs><title>IG</title><g id="Layer_2" data-name="Layer 2"><g id="Layer_1-2" data-name="Layer 1"><path class="cls-1" d="M10.47,7.42a3.15,3.15,0,0,1-.85,2.2,3.13,3.13,0,0,1-2.2.85c-.87,0-3.47,0-4.33,0a3.16,3.16,0,0,1-2.2-.85A3.11,3.11,0,0,1,0,7.42C0,6.55,0,4,0,3.08A3.11,3.11,0,0,1,.89.88,3.12,3.12,0,0,1,3.09,0C4,0,6.55,0,7.42,0a3.09,3.09,0,0,1,2.2.85,3.07,3.07,0,0,1,.85,2.2C10.52,4,10.52,6.55,10.47,7.42ZM9.56,5.25a11.71,11.71,0,0,0-.21-3.09,1.76,1.76,0,0,0-1-1A11.76,11.76,0,0,0,5.25,1a11.31,11.31,0,0,0-3.09.21,1.76,1.76,0,0,0-1,1A11.68,11.68,0,0,0,1,5.25a11.76,11.76,0,0,0,.21,3.1,1.79,1.79,0,0,0,1,1,11.71,11.71,0,0,0,3.09.21,11.76,11.76,0,0,0,3.1-.21,1.79,1.79,0,0,0,1-1A11.76,11.76,0,0,0,9.56,5.25ZM8,5.25a2.7,2.7,0,1,1-2.7-2.69A2.69,2.69,0,0,1,8,5.25Zm-1,0A1.75,1.75,0,1,0,5.25,7,1.75,1.75,0,0,0,7,5.25ZM8.06,3.08a.63.63,0,1,1,0-1.26.63.63,0,0,1,0,1.26Z"/></g></g></svg>