<svg xmlns="http://www.w3.org/2000/svg" viewBox="0 0 47.61 62.44"><defs><style>.cls-1,.cls-2{fill:#0a0b09;}.cls-2{fill-rule:evenodd;}</style></defs><title>LogoIcon</title><g id="Layer_2" data-name="Layer 2"><g id="Layer_1-2" data-name="Layer 1"><g id="Main-Page"><g id="_12_about" data-name="12_about"><g id="Group-56"><g id="Stroke-50"><path class="cls-1" d="M16.47,62.44a.18.18,0,0,1-.1,0c-.15-.07-.27-.3,0-1.39,3.76-13.64,18.55-32.4,29-42.79a77.06,77.06,0,0,1-14.46,8.24,44.46,44.46,0,0,1-7.76,5.42C13.84,37,5.41,37,0,31.81a.12.12,0,0,1,0-.16.11.11,0,0,1,.16,0c5.3,5.06,13.63,5.08,22.85.06a45.26,45.26,0,0,0,7.27-5c-6.92,3-14.45,4.94-20.1,3.76a10,10,0,0,1-7.58-6C.85,20.41,1.6,16,4.8,11.68,10.32,4.28,21.9-.9,30.63.13c6.25.74,10,3.26,10.74,7.29C42.45,13,37.83,20.3,31.46,26c7-3.14,13.23-7.18,16-9.72a.12.12,0,0,1,.16,0,.11.11,0,0,1,0,.16c-10.46,9.81-27,30.15-31,44.66-.23,1-.1,1.12-.1,1.13h0s.14,0,.55-.5a.12.12,0,0,1,.16,0,.11.11,0,0,1,0,.16C16.87,62.26,16.65,62.44,16.47,62.44ZM28.32.23C20,.23,10,5.1,5,11.82,2.79,14.76.63,19.34,2.84,24.42a9.79,9.79,0,0,0,7.42,5.86c5.79,1.21,13.56-.93,20.62-4,6.92-6,11.28-13.53,10.27-18.79C40.39,3.54,36.74,1.09,30.6.36A18.88,18.88,0,0,0,28.32.23Z"/></g><g id="Fill-52"><path class="cls-2" d="M31.9,34.45A10,10,0,0,1,31.61,36c-.41,1.38-1.2,1.47-1.62,1.47s-1.21-.09-1.63-1.47a10.14,10.14,0,0,1-.28-1.58,25.19,25.19,0,0,1-.17-3v-13a25.19,25.19,0,0,1,.17-3,9.72,9.72,0,0,1,.28-1.58c.42-1.38,1.2-1.47,1.63-1.47s1.21.09,1.62,1.47a9.6,9.6,0,0,1,.29,1.58,27.28,27.28,0,0,1,.17,3H34.3V18c0-3.84-2.14-6.1-4.31-6.12S25.68,14.18,25.68,18V31.89c0,3.84,2.13,6.1,4.31,6.12s4.31-2.28,4.31-6.12v-.44H32.07a27.42,27.42,0,0,1-.17,3"/></g><g id="Fill-54"><path class="cls-2" d="M17.19,15.46a10.79,10.79,0,0,1,.29-1.58c.41-1.38,1.2-1.47,1.62-1.47s1.22.09,1.63,1.47A10.79,10.79,0,0,1,21,15.46a25,25,0,0,1,.16,3h2.23V18c0-3.84-2.13-6.1-4.31-6.12S14.8,14.18,14.8,18V31.89c0,3.84,2.13,6.1,4.3,6.11s4.31-2.27,4.31-6.11V24.7H19v.51h2.2v6.24a25.13,25.13,0,0,1-.16,3A11.33,11.33,0,0,1,20.73,36c-.41,1.38-1.2,1.47-1.63,1.47s-1.21-.09-1.62-1.47a11.33,11.33,0,0,1-.29-1.58c-.11-1-.17-3-.17-3v-13s.06-2,.17-3"/></g></g></g></g></g></g></svg>