<svg xmlns="http://www.w3.org/2000/svg" viewBox="0 0 19 19"><defs><style>.cls-1{fill:#fff;}</style></defs><title>Phone</title><g id="Layer_2" data-name="Layer 2"><g id="Layer_1-2" data-name="Layer 1"><path class="cls-1" d="M16.81,19A16.83,16.83,0,0,1,0,2.19,1.34,1.34,0,0,1,1,.88L4.7,0A1.37,1.37,0,0,1,6.24.81L7.92,4.75a1.34,1.34,0,0,1-.38,1.57L5.71,7.81a12.44,12.44,0,0,0,5.48,5.47l1.49-1.82a1.36,1.36,0,0,1,1.57-.39l3.93,1.69A1.36,1.36,0,0,1,19,14.3L18.12,18A1.34,1.34,0,0,1,16.81,19ZM5,1H4.92l-3.65.84A.35.35,0,0,0,1,2.19,15.82,15.82,0,0,0,16.81,18a.35.35,0,0,0,.34-.27L18,14.08a.36.36,0,0,0-.2-.4L13.85,12a.34.34,0,0,0-.4.1l-2,2.43-.35-.16A13.47,13.47,0,0,1,4.64,7.89l-.17-.35,2.43-2A.38.38,0,0,0,7,5.14L5.32,1.21A.36.36,0,0,0,5,1Z"/></g></g></svg>