<svg xmlns="http://www.w3.org/2000/svg" viewBox="0 0 113.31 20.27"><title>Star</title><g id="Layer_2" data-name="Layer 2"><g id="Layer_1-2" data-name="Layer 1"><polygon points="10.65 0 13.95 6.67 21.31 7.74 15.98 12.94 17.24 20.27 10.65 16.81 4.07 20.27 5.33 12.94 0 7.74 7.36 6.67 10.65 0"/><polygon points="33.66 0 36.95 6.67 44.31 7.74 38.98 12.94 40.24 20.27 33.66 16.81 27.07 20.27 28.33 12.94 23 7.74 30.36 6.67 33.66 0"/><polygon points="56.66 0 59.95 6.67 67.31 7.74 61.98 12.94 63.24 20.27 56.66 16.81 50.07 20.27 51.33 12.94 46 7.74 53.36 6.67 56.66 0"/><polygon points="79.66 0 82.95 6.67 90.31 7.74 84.98 12.94 86.24 20.27 79.66 16.81 73.07 20.27 74.33 12.94 69 7.74 76.36 6.67 79.66 0"/><polygon points="102.66 0 105.95 6.67 113.31 7.74 107.98 12.94 109.24 20.27 102.66 16.81 96.07 20.27 97.33 12.94 92 7.74 99.36 6.67 102.66 0"/></g></g></svg>